<?xml version="1.0" encoding="UTF-8" standalone="no"?>
<!-- Created with Inkscape (http://www.inkscape.org/) -->

<svg
   xmlns:dc="http://purl.org/dc/elements/1.1/"
   xmlns:cc="http://creativecommons.org/ns#"
   xmlns:rdf="http://www.w3.org/1999/02/22-rdf-syntax-ns#"
   xmlns:svg="http://www.w3.org/2000/svg"
   xmlns="http://www.w3.org/2000/svg"
   xmlns:sodipodi="http://sodipodi.sourceforge.net/DTD/sodipodi-0.dtd"
   xmlns:inkscape="http://www.inkscape.org/namespaces/inkscape"
   width="280"
   height="280"
   viewBox="0 0 280 280"
   id="svg4904"
   version="1.1"
   inkscape:version="0.91 r13725"
   sodipodi:docname="atenea.svg">
  <defs
     id="defs4906" />
  <sodipodi:namedview
     id="base"
     pagecolor="#ffffff"
     bordercolor="#666666"
     borderopacity="1.0"
     inkscape:pageopacity="0.0"
     inkscape:pageshadow="2"
     inkscape:zoom="0.7"
     inkscape:cx="111.42857"
     inkscape:cy="50.966277"
     inkscape:document-units="px"
     inkscape:current-layer="layer1"
     showgrid="false"
     units="px"
     inkscape:window-width="1024"
     inkscape:window-height="706"
     inkscape:window-x="-8"
     inkscape:window-y="-8"
     inkscape:window-maximized="1" />
  <metadata
     id="metadata4909">
    <rdf:RDF>
      <cc:Work
         rdf:about="">
        <dc:format>image/svg+xml</dc:format>
        <dc:type
           rdf:resource="http://purl.org/dc/dcmitype/StillImage" />
        <dc:title></dc:title>
      </cc:Work>
    </rdf:RDF>
  </metadata>
  <g
     inkscape:label="Capa 1"
     inkscape:groupmode="layer"
     id="layer1"
     transform="translate(0,-772.36216)">
    <path
       inkscape:connector-curvature="0"
       style="opacity:0.82399998;fill:#ffffff;fill-opacity:1;stroke:#d35555;stroke-width:0;stroke-miterlimit:3.79999995;stroke-dasharray:none;stroke-opacity:1"
       d="M 178.7112,236.50715 A 139.99983,139.99984 0 0 0 38.71219,376.50618 139.99983,139.99984 0 0 0 178.7112,516.50714 139.99983,139.99984 0 0 0 318.71218,376.50618 139.99983,139.99984 0 0 0 178.7112,236.50715 Z m -55.49117,30.68578 0,0.002 c 0.0947,-0.003 0.19606,0.004 0.29233,0.004 l 0.12643,0.78814 c 0.1447,-0.004 0.23194,-0.37858 0.31407,-0.78221 0.071,0.002 0.13767,-10e-5 0.20937,0.004 3.91118,0.20476 8.74122,2.15158 10.84619,3.07944 1.5727,0.96122 2.6113,1.71651 2.6113,1.71651 12.27576,5.20339 19.9263,8.12834 25.27946,10.65064 6.80635,4.16822 8.89304,8.56549 16.09053,20.65932 6.15154,10.33632 3.54963,12.1198 6.19443,14.63475 -0.28486,-0.0164 -0.65677,-0.3459 -1.1259,-1.09825 -24.88248,-39.90492 -52.10288,-37.41093 -57.99383,-32.03291 -5.89097,5.37805 -19.8988,19.67953 -23.43258,31.52724 -2.84723,9.54599 -1.98485,25.59491 5.08433,20.58426 1.30296,-0.52389 2.6608,0.78236 4.02756,0.77629 7.45389,-3.9e-4 9.50557,4.20262 11.65408,14.60907 1.2e-4,9.46099 -6.65543,15.86969 -14.10933,15.86929 -4.8472,-0.009 -6.8632,-2.68634 -9.25807,-8.03538 -0.07818,0.0981 -0.122111,0.10576 -0.05728,-0.12839 -1.124718,-2.54693 -1.717376,-5.41593 -1.722433,-8.33563 3.34e-4,-3.48178 0.837238,-6.88266 2.397973,-9.74597 -1.687101,-8.50873 -5.247679,-16.83066 -1.868601,-31.24872 11.845601,-26.17495 25.283421,-27.86115 25.283421,-27.86115 -3.90681,-7.36456 -5.19421,-11.74487 -4.63596,-14.16859 0.83719,-0.99962 2.19282,-1.42322 3.79251,-1.46762 z m -2.54217,14.68216 c 0.44813,-0.007 0.44418,-0.002 0.69924,0 0.0515,0.0968 0.0896,0.18456 0.14222,0.28245 0,0 -11.91934,2.03166 -24.096272,28.62163 -3.473577,14.6467 0.185669,23.10285 1.919959,31.7465 a 13.873385,17.401538 0 0 0 -2.465133,9.89806 13.873385,17.401538 0 0 0 1.771814,8.46797 c -0.0666,0.23789 -0.02115,0.22998 0.05925,0.13036 a 13.873385,17.401538 0 0 0 12.041232,8.80377 13.873385,17.401538 0 0 0 13.8723,-17.4021 13.873385,17.401538 0 0 0 -13.8723,-17.40014 13.873385,17.401538 0 0 0 -4.14213,0.81184 c -3.74706,-2.85029 -6.25718,-8.01291 -3.3303,-17.71024 3.6326,-12.03556 17.08253,-25.92565 23.13827,-31.38897 6.05572,-5.4633 32.14476,-7.67515 57.72321,32.86251 1.06221,1.68344 1.7514,0.96271 2.10564,-0.798 1.76408,1.24555 4.84673,2.82576 10.60324,5.60383 23.47984,11.33121 -60.37046,-7.73621 -63.65693,12.81948 -3.28648,20.55571 11.46824,35.50637 1.95157,41.929 -19.0333,12.84529 -40.648323,5.43396 -58.011616,5.43396 11.931375,-21.50178 -3.197957,-37.5676 -3.197957,-37.5676 0,-22.66246 -6.417384,-23.7111 2.510565,-42.86133 9.548989,-20.48231 37.416598,-22.17894 44.234128,-22.28298 z m 46.58667,48.38415 c 6.45341,0.0101 6.35348,6.8462 6.18061,11.52966 0,0 1.48313,10.27399 6.61713,14.6624 l -7.40329,6.64875 c -6.68857,6.00679 -0.12046,21.06917 -6.23987,27.5925 -6.11939,6.52332 -26.53269,0.75802 -29.26357,5.31742 -14.31958,23.90752 -9.53694,12.87279 -14.32069,23.90863 -9.74774,22.48752 28.6195,75.27009 -18.13295,30.72132 -8.9706,-8.54778 -18.422427,-22.20666 -20.135863,-35.58245 -2.776201,-21.67205 1.807124,-24.71166 15.541393,-24.039 39.87474,1.95291 41.42141,-10.14701 41.12308,-23.51358 0,0 -6.36843,-20.09372 -6.03839,-24.8291 0.66009,-9.47078 11.53925,-12.44847 32.07241,-12.41655 z m 21.38621,8.65366 c 0,0 12.72972,1.85452 18.14678,9.93955 5.41704,8.08503 -1.31686,29.96881 3.88929,38.45647 5.20614,8.48766 15.98781,10.15485 15.98781,10.15485 l 2.78908,3.42116 0.23506,-14.44118 0,-36.29553 -9.93757,-6.48085 -3.45672,-3.45671 39.75225,0.4306 -1.72836,3.02611 -12.09851,6.04827 -0.8632,40.61742 0,12.36714 4.00782,-5.02113 c 0,0 10.56488,-1.66718 15.66584,-10.15485 5.10098,-8.48766 -1.49732,-30.37144 3.8103,-38.45647 5.30761,-8.08503 17.78135,-9.93757 17.78135,-9.93757 0,0 -8.46826,9.57691 -8.04527,29.5974 0.42301,20.02049 -1.00163,20.01882 -4.65569,25.27947 -3.65406,5.26065 -11.00817,6.48085 -11.00817,6.48085 l -17.55618,2.91747 0,15.87917 -0.43257,24.6296 15.12264,6.91344 -39.75225,0 0.8632,-2.59352 10.37212,-3.45672 1.29578,-15.55523 0.43257,-16.4204 0.16,-9.8309 -16.58039,-2.69821 c 0,0 -7.5059,-1.22218 -11.23531,-6.48283 -3.72941,-5.26065 -5.18421,-5.257 -4.75249,-25.27749 0.43171,-20.0205 -8.20921,-29.59938 -8.20921,-29.59938 z"
       id="path4246-9" />
    <path
       inkscape:connector-curvature="0"
       style="opacity:1;fill:#ffffff;fill-opacity:1;stroke:#d35555;stroke-width:0;stroke-miterlimit:3.79999995;stroke-dasharray:none;stroke-opacity:1"
       d="M 139.66803,776.42118 A 137.49984,137.49982 0 0 0 2.169009,913.92021 137.49984,137.49982 0 0 0 139.66803,1051.4222 137.49984,137.49982 0 0 0 277.169,913.92021 137.49984,137.49982 0 0 0 139.66803,776.42118 Z m -54.500251,30.13782 0,0.002 c 0.0931,-0.003 0.19255,0.004 0.28712,0.004 l 0.12415,0.77406 c 0.14212,-0.004 0.22781,-0.37183 0.30847,-0.76825 0.0697,0.002 0.13521,-1e-4 0.20563,0.004 3.84133,0.20112 8.58513,2.11318 10.65252,3.02446 1.54461,0.94405 2.56466,1.68585 2.56466,1.68585 12.056551,5.11049 19.570471,7.9832 24.828041,10.46045 6.68481,4.09379 8.73424,8.41254 15.8032,20.2904 6.04169,10.15175 3.48624,11.90338 6.08382,14.37342 -0.27977,-0.0161 -0.64505,-0.33972 -1.10579,-1.07864 -24.43816,-39.19232 -51.172481,-36.74287 -56.958231,-31.46089 -5.78578,5.28201 -19.54348,19.32811 -23.01416,30.96425 -2.79638,9.37552 -1.94939,25.13784 4.99355,20.21668 1.2797,-0.51454 2.61328,0.76838 3.95565,0.76242 7.32078,-3.8e-4 9.33582,4.12757 11.44597,14.3482 1.2e-4,9.29203 -6.53659,15.58629 -13.85738,15.5859 -4.76065,-0.009 -6.74065,-2.63837 -9.09276,-7.89189 -0.0768,0.0964 -0.11992,0.10387 -0.0562,-0.1261 -1.10463,-2.50145 -1.68671,-5.31922 -1.69168,-8.18678 3.3e-4,-3.4196 0.8223,-6.75976 2.35516,-9.57193 -1.65697,-8.35678 -5.15397,-16.5301 -1.83523,-30.69069 11.63406,-25.70754 24.83192,-27.36363 24.83192,-27.36363 -3.83704,-7.23305 -5.10144,-11.53514 -4.55316,-13.91558 0.82223,-0.98176 2.15366,-1.3978 3.72479,-1.44141 z m -2.49678,14.41998 c 0.44013,-0.007 0.43625,-0.002 0.68676,0 0.0505,0.095 0.088,0.18126 0.13968,0.27741 0,0 -11.70651,1.99538 -23.66599,28.11052 -3.41155,14.38515 0.18235,22.6903 1.88567,31.17958 a 13.625646,17.090795 0 0 0 -2.42111,9.72131 13.625646,17.090795 0 0 0 1.74017,8.31676 c -0.0655,0.23364 -0.0208,0.22587 0.0582,0.12804 a 13.625646,17.090795 0 0 0 11.82621,8.64655 13.625646,17.090795 0 0 0 13.62458,-17.09135 13.625646,17.090795 0 0 0 -13.62458,-17.08941 13.625646,17.090795 0 0 0 -4.06817,0.79734 c -3.68014,-2.79939 -6.14543,-7.86982 -3.27083,-17.39398 3.56774,-11.82064 16.7775,-25.46269 22.7251,-30.82845 5.94758,-5.36574 31.570741,-7.53808 56.692441,32.27569 1.04325,1.65337 1.72012,0.9455 2.06804,-0.78376 1.73258,1.2233 4.76019,2.7753 10.4139,5.50375 23.06056,11.12888 -59.292421,-7.59806 -62.520201,12.59057 -3.22779,20.18862 11.263441,34.87231 1.91671,41.18025 -18.69342,12.61591 -39.92245,5.33692 -56.97569,5.33692 11.71832,-21.11781 -3.14085,-36.89674 -3.14085,-36.89674 0,-22.25776 -6.30278,-23.28768 2.46573,-42.09593 9.37848,-20.11655 36.74843,-21.78288 43.44423,-21.88507 z m 45.754761,47.52014 c 6.33819,0.01 6.24003,6.72394 6.07025,11.32377 0,0 1.45665,10.09052 6.49897,14.40056 l -7.27109,6.53002 c -6.56913,5.89953 -0.1183,20.69294 -6.12844,27.09977 -6.01012,6.4068 -26.05889,0.74449 -28.741021,5.2225 -14.06387,23.4806 -9.36662,12.6429 -14.06495,23.4817 -9.57367,22.0859 28.108421,73.92696 -17.80915,30.1727 -8.81042,-8.3952 -18.09346,-21.8101 -19.77631,-34.9471 -2.72662,-21.28501 1.77486,-24.27033 15.26388,-23.60969 39.162701,1.91804 40.681731,-9.96582 40.388741,-23.09369 0,0 -6.254701,-19.7349 -5.930561,-24.38572 0.6483,-9.30166 11.333191,-12.22617 31.499681,-12.19482 z m 21.00431,8.49912 c 0,0 12.50241,1.8214 17.82274,9.76206 5.32032,7.94065 -1.29334,29.43364 3.81984,37.76974 5.11318,8.3361 15.70232,9.9735 15.70232,9.9735 l 2.73927,3.3601 0.23086,-14.18332 0,-35.64739 -9.76011,-6.36512 -3.395,-3.39499 39.0424,0.42292 -1.69751,2.97207 -11.88246,5.94027 -0.84778,39.8921 0,12.14626 3.93625,-4.9314 c 0,0 10.37622,-1.6375 15.3861,-9.97355 5.00988,-8.33609 -1.47059,-29.82908 3.74225,-37.76974 5.21282,-7.94065 17.46383,-9.7601 17.46383,-9.7601 0,0 -8.31704,9.40588 -7.9016,29.06886 0.41545,19.66298 -0.98375,19.66134 -4.57256,24.82805 -3.58881,5.16668 -10.81159,6.36508 -10.81159,6.36508 l -17.24268,2.8654 0,15.5956 -0.42485,24.1898 14.8526,6.79 -39.0424,0 0.84779,-2.5472 10.18691,-3.395 1.27264,-15.2775 0.42485,-16.1271 0.15713,-9.6554 -16.28431,-2.65 c 0,0 -7.37187,-1.2004 -11.03467,-6.36708 -3.66282,-5.16671 -5.09164,-5.16312 -4.66763,-24.82611 0.424,-19.66298 -8.06263,-29.07081 -8.06263,-29.07081 z"
       id="path4246-9-2" />
  </g>
</svg>
