<?xml version="1.0" encoding="UTF-8" standalone="no"?>
<!-- Created with Inkscape (http://www.inkscape.org/) -->

<svg
   xmlns:dc="http://purl.org/dc/elements/1.1/"
   xmlns:cc="http://creativecommons.org/ns#"
   xmlns:rdf="http://www.w3.org/1999/02/22-rdf-syntax-ns#"
   xmlns:svg="http://www.w3.org/2000/svg"
   xmlns="http://www.w3.org/2000/svg"
   xmlns:sodipodi="http://sodipodi.sourceforge.net/DTD/sodipodi-0.dtd"
   xmlns:inkscape="http://www.inkscape.org/namespaces/inkscape"
   width="845"
   height="784"
   viewBox="0 0 845 784.00002"
   id="svg5364"
   version="1.1"
   inkscape:version="0.91 r13725"
   sodipodi:docname="logo_svg.svg">
  <defs
     id="defs5366" />
  <sodipodi:namedview
     id="base"
     pagecolor="#ffffff"
     bordercolor="#666666"
     borderopacity="1.0"
     inkscape:pageopacity="0.0"
     inkscape:pageshadow="2"
     inkscape:zoom="0.16794594"
     inkscape:cx="1488.3502"
     inkscape:cy="-397.54975"
     inkscape:document-units="px"
     inkscape:current-layer="layer1"
     showgrid="false"
     units="px"
     inkscape:window-width="1024"
     inkscape:window-height="706"
     inkscape:window-x="-8"
     inkscape:window-y="-8"
     inkscape:window-maximized="1" />
  <metadata
     id="metadata5369">
    <rdf:RDF>
      <cc:Work
         rdf:about="">
        <dc:format>image/svg+xml</dc:format>
        <dc:type
           rdf:resource="http://purl.org/dc/dcmitype/StillImage" />
        <dc:title></dc:title>
      </cc:Work>
    </rdf:RDF>
  </metadata>
  <g
     inkscape:label="fondo"
     inkscape:groupmode="layer"
     id="layer1"
     transform="translate(0,-268.36216)">
    <path
       style="opacity:1;fill:#ff0000;fill-opacity:0.99430195;stroke:none;stroke-width:2.20000005;stroke-linecap:round;stroke-miterlimit:4;stroke-dasharray:2.2, 2.2;stroke-dashoffset:0;stroke-opacity:1"
       id="path5936-4"
       ry="44.679859"
       rx="45.122234"
       cy="797.11188"
       cx="566.23981"
       d=""
       inkscape:connector-curvature="0" />
    <path
       style="fill:#f9f9f9;fill-opacity:1;fill-rule:evenodd;stroke:none;stroke-width:1px;stroke-linecap:butt;stroke-linejoin:miter;stroke-opacity:1"
       d="m 507.50711,266.1427 c -83.0036,-2.3718 -165.05026,19.43 -153.72089,98.6982 l 33.80757,204.9101 c 34.08992,-5.9383 70.36862,-4.2944 102.11402,3.7689 L 609.15371,274.41 c -33.4323,-5.7527 -67.5299,-8.5001 -101.6466,-8.2673 z m 205.7789,41.9194 c -22.3235,0.416 -49.0637,15.5209 -62.696,35.2417 -49.1096,71.0427 -133.551,239.2542 -133.551,239.2542 26.4349,11.0183 63.934,38.9593 63.934,38.9593 l 271.5535,-232.9569 c -35.9852,-32.4713 -77.0465,-58.2773 -121.1942,-77.6923 l -5.696,-1.4767 c -4.1103,-0.9855 -8.2348,-1.406 -12.3503,-1.3293 z m -432.58044,5.5196 c -32.78861,18.0662 -67.83572,27.4898 -87.90685,56.0627 -16.99028,25.1228 -9.69656,61.2895 5.4096,93.0244 l 104.45833,144.1981 c 6.20462,-4.9388 12.83178,-9.5532 19.93946,-13.7527 11.33932,-6.8747 23.80555,-12.3598 36.94531,-16.5418 z m -176.09686,130.709 c -8.53602,10.6779 -17.32,22.2118 -27.70649,35.4509 C 37.2402,535.0525 3.38447,614.1298 66.0731,634.1153 l 177.38425,62.9322 c 6.77244,-24.394 18.75463,-47.8473 36.16168,-68.0405 z m 323.8979,150.8105 c -60.7667,8.7779 -30.64612,75.565 -15.3695,129.476 4.9065,0.345 9.9114,1.541 14.869,3.4466 l 51.0702,-127.8859 c -16.7602,-3.4861 -33.786,-5.1624 -50.5697,-5.0367 z m -60.7667,8.7779 c -18.26674,5.3891 -45.5325,13.0321 -44.97133,28.7361 1.46728,41.0608 68.83547,97.0224 68.83547,97.0224 3.89503,-2.4212 8.07616,-3.9559 12.43586,-4.6735 z m 141.1183,12.4898 c -21.069,5.6273 -74.5799,114.4541 -74.5799,114.4541 3.2577,1.6575 6.4576,3.6047 9.5648,5.8038 l 141.7361,-81.8345 c -23.4543,-22.4434 -55.652,-44.0508 -76.721,-38.4234 z M 295.53834,645.809 c -15.37254,15.784 -23.39954,22.9723 -26.86984,44.555 -6.46032,40.1783 109.05761,54.3178 109.05761,54.3178 1.48868,-2.6199 3.08655,-4.9852 4.80376,-7.0579 z M 8.09523,678.6834 c -1.93251,53.2523 7.47395,106.2843 26.26109,154.9149 l 0.33584,0.4353 c 49.31022,63.9143 146.83231,-4.2419 213.2891,-27.6906 -9.67038,-24.5343 -13.14421,-52.3394 -10.13106,-80.1386 z m 577.92968,7.9565 -131.6227,58.7856 c 4.3383,4.2251 8.3187,8.9249 11.7608,13.9686 0,0 1.3755,2.4337 3.2366,6.4516 l 175.2869,6.9276 c -5.1724,-35.7319 -30.912,-98.527 -58.6616,-86.1334 z m -327.66234,43.8063 c -1.44361,20.7716 0.34124,72.8445 25.2002,63.9149 l 89.6855,-32.216 c 0.009,-2.6534 0.26613,-5.2605 0.77706,-7.7739 z m 165.67274,39.3224 0.2667,1.4081 c 15.2404,7.0273 22.7926,10.7029 11.6522,19.6799 l 9.6932,13.3828 -9.6786,-13.4913 c -1.6612,1.2906 -5.099,4.0369 -6.942,5.3096 l 8.7449,46.0479 c 11.0965,-9.461 23.5897,-29.6634 26.7945,-37.4823 3.2048,-7.8188 -23.5898,-29.7945 -26.8801,-32.9979 -3.27,-3.1836 -14.6248,-6.999 -13.6508,-1.8568 z m -49.82562,2.0353 -98.16959,50.5188 c 12.52285,20.3428 56.48564,43.7513 72.87546,22.096 l 36.97271,-48.851 c -0.92222,-0.8889 -1.7746,-1.8369 -2.54512,-2.8471 -3.25397,-4.2658 -6.41363,-10.8465 -8.18209,-16.4558 l -9.00815,5.2213 9.11697,-5.2662 c -0.4171,-1.4548 -0.76664,-2.9307 -1.06019,-4.416 z m 83.79742,7.9034 3.441,5.6298 c -1.8715,-6.9851 3.6804,8.0606 -3.441,-5.6298 z m 16.0711,-2.3223 c 2.5688,7.2958 4.8987,16.0639 5.4491,24.9667 l 138.6445,130.4932 c 12.0637,-21.3068 20.4653,-44.9416 24.6807,-70.5761 0.1445,-0.8788 0.2679,-1.7436 0.405,-2.6175 l -0.1548,-3.5667 c -15.2238,-74.9012 -106.9975,-67.5984 -169.0246,-78.6996 z m -82.13832,22.6335 -34.58128,66.0703 c 23.43372,1.8387 72.1329,-5.9874 70.3422,-21.0812 l -5.315,-44.8009 c -3.9992,2.2047 -7.9807,3.8201 -11.435,4.1047 -6.2682,0.5165 -13.19801,-1.0278 -19.01092,-4.2929 z m 85.62182,20.5569 c -0.1195,0.3744 -0.2243,0.7532 -0.3556,1.1237 -6.2305,17.5778 -18.5309,31.9616 -35.1212,43.1188 l 33.3795,175.7533 c 176.0309,-65.8773 63.9549,-145.8174 2.0973,-219.9958 z m -217.33886,9.888 -177.71022,91.4587 c 25.67298,34.9364 52.30954,76.4246 93.42181,86.7376 74.61597,18.7175 111.21223,-72.4871 149.64153,-127.2076 -28.56084,-9.2347 -50.44937,-27.5809 -65.35312,-50.9887 z m 166.59136,43.1392 c -11.4051,5.6135 -24.179,10.0554 -37.94952,13.3007 -15.13443,1.7006 -29.16701,1.4045 -42.12114,-0.5383 l -82.46762,157.5636 c 195.71628,27.5611 171.15288,-46.7773 162.53828,-170.326 z"
       id="path5934-1-1"
       inkscape:connector-curvature="0"
       sodipodi:nodetypes="ccccccsscccccscccccccccccccccccccsccczccczcscccccscccsccccscscccscccccczssccscccccccccccccccccccscsccccccccsccccccc" />
    <path
       style="opacity:1;fill:#f9f9f9;fill-opacity:1;stroke:none;stroke-width:2.20000005;stroke-linecap:round;stroke-miterlimit:4;stroke-dasharray:2.2, 2.2;stroke-dashoffset:0;stroke-opacity:1"
       d="m 339.56214,530.8599 c 8.30875,17.4354 7.77318,36.9297 -1.20082,43.7088 l -18.62547,14.07 c -4.11696,3.1099 -9.27356,2.9796 -14.45161,0.2527 6.30364,-1.8155 15.99491,-18.7472 18.17228,-34.4413 2.55175,-18.3922 0.82728,-45.5094 -6.88195,-63.5349 4.26079,3.7162 8.29358,9.1104 11.49384,15.8259 z"
       id="rect4150-8-4-2"
       inkscape:connector-curvature="0"
       sodipodi:nodetypes="ssscacss" />
    <path
       style="opacity:1;fill:#f9f9f9;fill-opacity:1;stroke:none;stroke-width:2.20000005;stroke-linecap:round;stroke-miterlimit:4;stroke-dasharray:2.2, 2.2;stroke-dashoffset:0;stroke-opacity:1"
       d="m 421.90881,602.4096 c -17.128,-1.7131 -28.11916,28.2971 -24.81859,43.6171 l 6.52749,30.2984 c 1.5142,7.0282 13.1003,11.9647 19.5344,15.2419 -5.3997,-7.9703 -7.0019,-31.1855 -1.7286,-45.6182 6.1799,-16.9142 20.7401,-36.1397 36.936,-42.0866 -13.2819,0.3851 -22.6997,-0.077 -36.4507,-1.4526 z"
       id="rect4150-8-4-9"
       inkscape:connector-curvature="0"
       sodipodi:nodetypes="csscacc" />
    <path
       style="opacity:1;fill:#f9f9f9;fill-opacity:1;stroke:none;stroke-width:2.20000005;stroke-linecap:round;stroke-miterlimit:4;stroke-dasharray:2.2, 2.2;stroke-dashoffset:0;stroke-opacity:1"
       d="m 336.94242,626.5575 c -13.81114,10.2742 1.32305,36.6631 11.04721,48.9528 l 16.75289,21.1729 c 4.46101,5.638 13.49962,3.1966 20.46215,1.2834 -9.36017,-2.2517 -15.65649,-24.8956 -19.28627,-38.9085 -3.79728,-14.6596 -10.0837,-30.074 -2.12233,-45.3805 -9.55533,9.2333 -15.76544,4.6316 -26.85365,12.8799 z"
       id="rect4150-8-4-9-1"
       inkscape:connector-curvature="0"
       sodipodi:nodetypes="csscacc" />
    <path
       style="opacity:1;fill:#f9f9f9;fill-opacity:1;stroke:none;stroke-width:2.20000005;stroke-linecap:round;stroke-miterlimit:4;stroke-dasharray:2.2, 2.2;stroke-dashoffset:0;stroke-opacity:1"
       d="m 537.58471,627.7893 c -16.0721,-9.7777 -40.3515,1.2682 -54.4379,24.7665 l -29.2361,48.7707 c -6.4622,10.7801 -9.6136,22.249 -9.5908,32.4542 6.2773,-15.0177 34.8676,-44.6021 53.9576,-58.0481 20.6334,-14.533 35.888,-23.8546 53.0696,-15.716 -1.8263,-7.654 14.6611,-14.9355 8.4705,-18.7015 z"
       id="rect4150-8-4-7-8-3-3-2-0-5"
       inkscape:connector-curvature="0"
       sodipodi:nodetypes="ssscacss"
       inkscape:transform-center-x="51.729223"
       inkscape:transform-center-y="56.778244" />
    <path
       style="opacity:1;fill:#f9f9f9;fill-opacity:1;stroke:none;stroke-width:2.20000005;stroke-linecap:round;stroke-miterlimit:4;stroke-dasharray:2.2, 2.2;stroke-dashoffset:0;stroke-opacity:1"
       d="m 275.6431,690.4984 c -4.55708,15.8239 18.79999,33.0317 36.37901,30.8379 l 29.9806,-3.7412 c 19.14085,-0.3098 -28.55438,-46.6994 -43.10423,-64.3092 -7.35763,6.6467 -21.59934,19.4931 -23.25538,37.2125 z"
       id="rect4150-8-4-9-1-3"
       inkscape:connector-curvature="0"
       sodipodi:nodetypes="csccc" />
    <path
       style="opacity:1;fill:#f9f9f9;fill-opacity:1;stroke:none;stroke-width:2.20000005;stroke-linecap:round;stroke-miterlimit:4;stroke-dasharray:2.2, 2.2;stroke-dashoffset:0;stroke-opacity:1"
       d="m 493.35671,545.1034 c -6.5979,18.1532 -18.0527,14.8482 -32.8032,14.3817 l -30.6146,-0.9683 c -6.767,-0.214 -22.9486,0.6061 -26.6782,-4.8641 8.2391,2.6361 38.7838,-9.1632 55.3949,-19.5261 21.873,-13.6455 50.658,-35.1225 55.1646,-54.2083 2.0083,5.6547 -2.5827,15.9887 -5.124,22.9807 z"
       id="rect4150-8-4-2-9"
       inkscape:connector-curvature="0"
       sodipodi:nodetypes="ssscacss" />
    <path
       style="opacity:1;fill:#f9f9f9;fill-opacity:1;stroke:none;stroke-width:2.20000005;stroke-linecap:round;stroke-miterlimit:4;stroke-dasharray:2.2, 2.2;stroke-dashoffset:0;stroke-opacity:1"
       d="m 597.01281,599.2729 c -14.629,12.612 -23.0067,4.1299 -35.6472,-3.4869 l -26.2351,-15.8086 c -5.7989,-3.4943 -20.3167,-10.6881 -20.8967,-17.2833 5.8993,6.3269 38.314,10.9628 57.8708,10.0413 25.7519,-1.2133 61.3615,-5.8804 74.6219,-20.3283 -1.0118,5.9149 -10.068,12.6864 -15.7026,17.5441 z"
       id="rect4150-8-4-2-9-2"
       inkscape:connector-curvature="0"
       sodipodi:nodetypes="ssscacss"
       inkscape:transform-center-x="-4.2421516"
       inkscape:transform-center-y="-4.2421516" />
  </g>
  <g
     inkscape:groupmode="layer"
     id="layer2"
     inkscape:label="Capa 2"
     transform="translate(0,364)" />
</svg>
